<svg width="23" height="25" viewBox="0 0 23 25" fill="none" xmlns="http://www.w3.org/2000/svg">
<path d="M12.92 5.44531C13.1343 5.44485 13.342 5.52691 13.507 5.67725C13.5999 5.7619 13.6767 5.86587 13.733 5.98319C13.7892 6.10052 13.8239 6.2289 13.835 6.36097C13.8461 6.49305 13.8333 6.62623 13.7975 6.75289C13.7617 6.87955 13.7035 6.9972 13.6263 7.0991L9.517 12.5041L13.4795 17.9193C13.5557 18.0224 13.6126 18.1411 13.6469 18.2685C13.6813 18.3959 13.6924 18.5295 13.6796 18.6616C13.6668 18.7938 13.6304 18.9218 13.5724 19.0384C13.5145 19.155 13.4362 19.2579 13.3419 19.3411C13.247 19.4329 13.1359 19.5022 13.0155 19.5445C12.8951 19.5868 12.768 19.6014 12.6423 19.5872C12.5165 19.573 12.3948 19.5303 12.2848 19.462C12.1747 19.3936 12.0787 19.301 12.0027 19.1899L7.57242 13.1394C7.43751 12.959 7.36376 12.7327 7.36376 12.4991C7.36376 12.2655 7.43751 12.0392 7.57242 11.8588L12.1587 5.80834C12.2507 5.68631 12.3676 5.58984 12.4999 5.52676C12.6321 5.46369 12.7761 5.43578 12.92 5.44531Z" fill="white"/>
</svg>
