<svg width="23" height="25" viewBox="0 0 23 25" fill="none" xmlns="http://www.w3.org/2000/svg">
<path d="M9.94719 19.563C9.73287 19.5634 9.52517 19.4814 9.36015 19.3311C9.26727 19.2464 9.19049 19.1424 9.13421 19.0251C9.07794 18.9078 9.04327 18.7794 9.03219 18.6473C9.02112 18.5153 9.03385 18.3821 9.06966 18.2554C9.10548 18.1288 9.16367 18.0111 9.2409 17.9092L13.3502 12.5042L9.38766 7.08904C9.31147 6.98589 9.25457 6.8672 9.22024 6.7398C9.1859 6.6124 9.17481 6.4788 9.1876 6.34667C9.20038 6.21454 9.23679 6.08649 9.29474 5.96988C9.35269 5.85327 9.43102 5.7504 9.52525 5.66719C9.62016 5.57539 9.73129 5.50614 9.8517 5.4638C9.9721 5.42146 10.0992 5.40693 10.2249 5.42114C10.3507 5.43534 10.4724 5.47796 10.5824 5.54634C10.6925 5.61471 10.7885 5.70735 10.8644 5.81845L15.2948 11.8689C15.4297 12.0493 15.5034 12.2756 15.5034 12.5092C15.5034 12.7428 15.4297 12.9691 15.2948 13.1495L10.7085 19.2C10.6165 19.322 10.4996 19.4185 10.3673 19.4815C10.235 19.5446 10.0911 19.5725 9.94719 19.563Z" fill="white"/>
</svg>
