<svg width="30" height="24" viewBox="0 0 30 24" fill="none" xmlns="http://www.w3.org/2000/svg">
<path d="M6.65448 13H21.2268L16.7667 17.36C16.6634 17.4611 16.5856 17.5778 16.5377 17.7034C16.4899 17.829 16.4729 17.961 16.4877 18.0919C16.5177 18.3564 16.6755 18.6003 16.9264 18.77C17.1773 18.9397 17.5008 19.0214 17.8257 18.997C18.1506 18.9726 18.4503 18.8442 18.6589 18.64L24.8023 12.64C24.8437 12.5923 24.8806 12.5421 24.9129 12.49C24.9129 12.44 24.9744 12.41 24.9989 12.36C25.0546 12.2453 25.0838 12.1233 25.0849 12C25.0838 11.8767 25.0546 11.7547 24.9989 11.64C24.9989 11.59 24.9375 11.56 24.9129 11.51C24.8806 11.4579 24.8437 11.4077 24.8023 11.36L18.6589 5.36C18.5433 5.24712 18.3987 5.15634 18.2351 5.09412C18.0716 5.0319 17.8933 4.99976 17.7128 5C17.4257 4.99955 17.1474 5.08092 16.9264 5.23C16.802 5.31395 16.6991 5.41705 16.6237 5.5334C16.5484 5.64975 16.5019 5.77705 16.4871 5.90803C16.4722 6.03901 16.4893 6.17108 16.5373 6.29668C16.5853 6.42229 16.6632 6.53895 16.7667 6.64L21.2268 11H6.65448C6.32861 11 6.01608 11.1054 5.78566 11.2929C5.55523 11.4804 5.42578 11.7348 5.42578 12C5.42578 12.2652 5.55523 12.5196 5.78566 12.7071C6.01608 12.8946 6.32861 13 6.65448 13Z" fill="#444444"/>
</svg>
