<svg width="28" height="24" viewBox="0 0 28 24" fill="none" xmlns="http://www.w3.org/2000/svg">
<path d="M6.50207 13L19.9212 13L15.814 17.36C15.7189 17.4611 15.6473 17.5778 15.6032 17.7034C15.5591 17.829 15.5435 17.961 15.5571 18.0919C15.5847 18.3564 15.73 18.6003 15.9611 18.77C16.1922 18.9397 16.49 19.0214 16.7892 18.997C17.0884 18.9726 17.3644 18.8442 17.5565 18.64L23.2138 12.64C23.2518 12.5923 23.2859 12.5421 23.3156 12.49C23.3156 12.44 23.3722 12.41 23.3948 12.36C23.4461 12.2453 23.4729 12.1233 23.474 12C23.4729 11.8767 23.4461 11.7547 23.3948 11.64C23.3948 11.59 23.3382 11.56 23.3156 11.51C23.2859 11.4579 23.2518 11.4077 23.2138 11.36L17.5565 5.36C17.4501 5.24712 17.3169 5.15634 17.1663 5.09412C17.0157 5.0319 16.8515 4.99976 16.6852 5C16.4209 4.99955 16.1647 5.08092 15.9611 5.23C15.8465 5.31395 15.7518 5.41705 15.6824 5.5334C15.613 5.64975 15.5702 5.77705 15.5566 5.90803C15.5429 6.03901 15.5586 6.17108 15.6028 6.29668C15.647 6.42229 15.7187 6.53895 15.814 6.64L19.9212 11L6.50207 11C6.20199 11 5.91419 11.1054 5.702 11.2929C5.48981 11.4804 5.37061 11.7348 5.37061 12C5.37061 12.2652 5.48981 12.5196 5.702 12.7071C5.91419 12.8946 6.20199 13 6.50207 13Z" fill="white"/>
</svg>
